<?xml version="1.0" encoding="UTF-8" standalone="no"?>
<svg xmlns="http://www.w3.org/2000/svg" version="1.1" width="124pt" height="100pt">
<rect x="0pt" y="0pt" width="124pt" height="100pt" style="fill:#ffffff;fill-opacity:1" />
<!-- Printing barcode for "4019339506035", scaled  1.00, encoded using "EAN-13" -->
<!-- The space/bar succession is represented by the following widths (space first): 911132111222311214111141211311111123132111114321114111231111 -->
<line x1="19.500000pt" y1="85.000000pt" x2="19.500000pt" y2="10.000000pt" style="stroke:rgb(0,0,0);stroke-width:0.850000pt" />
<line x1="21.500000pt" y1="85.000000pt" x2="21.500000pt" y2="10.000000pt" style="stroke:rgb(0,0,0);stroke-width:0.850000pt" />
<line x1="26.000000pt" y1="80.000000pt" x2="26.000000pt" y2="10.000000pt" style="stroke:rgb(0,0,0);stroke-width:1.850000pt" />
<line x1="28.500000pt" y1="80.000000pt" x2="28.500000pt" y2="10.000000pt" style="stroke:rgb(0,0,0);stroke-width:0.850000pt" />
<line x1="31.000000pt" y1="80.000000pt" x2="31.000000pt" y2="10.000000pt" style="stroke:rgb(0,0,0);stroke-width:1.850000pt" />
<line x1="35.000000pt" y1="80.000000pt" x2="35.000000pt" y2="10.000000pt" style="stroke:rgb(0,0,0);stroke-width:1.850000pt" />
<line x1="39.500000pt" y1="80.000000pt" x2="39.500000pt" y2="10.000000pt" style="stroke:rgb(0,0,0);stroke-width:0.850000pt" />
<line x1="42.000000pt" y1="80.000000pt" x2="42.000000pt" y2="10.000000pt" style="stroke:rgb(0,0,0);stroke-width:1.850000pt" />
<line x1="46.000000pt" y1="80.000000pt" x2="46.000000pt" y2="10.000000pt" style="stroke:rgb(0,0,0);stroke-width:3.850000pt" />
<line x1="49.500000pt" y1="80.000000pt" x2="49.500000pt" y2="10.000000pt" style="stroke:rgb(0,0,0);stroke-width:0.850000pt" />
<line x1="51.500000pt" y1="80.000000pt" x2="51.500000pt" y2="10.000000pt" style="stroke:rgb(0,0,0);stroke-width:0.850000pt" />
<line x1="56.500000pt" y1="80.000000pt" x2="56.500000pt" y2="10.000000pt" style="stroke:rgb(0,0,0);stroke-width:0.850000pt" />
<line x1="59.500000pt" y1="80.000000pt" x2="59.500000pt" y2="10.000000pt" style="stroke:rgb(0,0,0);stroke-width:0.850000pt" />
<line x1="62.500000pt" y1="80.000000pt" x2="62.500000pt" y2="10.000000pt" style="stroke:rgb(0,0,0);stroke-width:2.850000pt" />
<line x1="65.500000pt" y1="85.000000pt" x2="65.500000pt" y2="10.000000pt" style="stroke:rgb(0,0,0);stroke-width:0.850000pt" />
<line x1="67.500000pt" y1="85.000000pt" x2="67.500000pt" y2="10.000000pt" style="stroke:rgb(0,0,0);stroke-width:0.850000pt" />
<line x1="69.500000pt" y1="80.000000pt" x2="69.500000pt" y2="10.000000pt" style="stroke:rgb(0,0,0);stroke-width:0.850000pt" />
<line x1="73.500000pt" y1="80.000000pt" x2="73.500000pt" y2="10.000000pt" style="stroke:rgb(0,0,0);stroke-width:2.850000pt" />
<line x1="77.500000pt" y1="80.000000pt" x2="77.500000pt" y2="10.000000pt" style="stroke:rgb(0,0,0);stroke-width:2.850000pt" />
<line x1="81.500000pt" y1="80.000000pt" x2="81.500000pt" y2="10.000000pt" style="stroke:rgb(0,0,0);stroke-width:0.850000pt" />
<line x1="83.500000pt" y1="80.000000pt" x2="83.500000pt" y2="10.000000pt" style="stroke:rgb(0,0,0);stroke-width:0.850000pt" />
<line x1="85.500000pt" y1="80.000000pt" x2="85.500000pt" y2="10.000000pt" style="stroke:rgb(0,0,0);stroke-width:0.850000pt" />
<line x1="91.500000pt" y1="80.000000pt" x2="91.500000pt" y2="10.000000pt" style="stroke:rgb(0,0,0);stroke-width:2.850000pt" />
<line x1="95.500000pt" y1="80.000000pt" x2="95.500000pt" y2="10.000000pt" style="stroke:rgb(0,0,0);stroke-width:0.850000pt" />
<line x1="97.500000pt" y1="80.000000pt" x2="97.500000pt" y2="10.000000pt" style="stroke:rgb(0,0,0);stroke-width:0.850000pt" />
<line x1="102.500000pt" y1="80.000000pt" x2="102.500000pt" y2="10.000000pt" style="stroke:rgb(0,0,0);stroke-width:0.850000pt" />
<line x1="104.500000pt" y1="80.000000pt" x2="104.500000pt" y2="10.000000pt" style="stroke:rgb(0,0,0);stroke-width:0.850000pt" />
<line x1="108.500000pt" y1="80.000000pt" x2="108.500000pt" y2="10.000000pt" style="stroke:rgb(0,0,0);stroke-width:2.850000pt" />
<line x1="111.500000pt" y1="85.000000pt" x2="111.500000pt" y2="10.000000pt" style="stroke:rgb(0,0,0);stroke-width:0.850000pt" />
<line x1="113.500000pt" y1="85.000000pt" x2="113.500000pt" y2="10.000000pt" style="stroke:rgb(0,0,0);stroke-width:0.850000pt" />
<text x="10.000000pt" y="90.000000pt" fill="black" style="font-family:Helvetica;font-size:12pt">4</text>
<text x="22.000000pt" y="90.000000pt" fill="black" style="font-family:Helvetica;font-size:12pt">0</text>
<text x="29.000000pt" y="90.000000pt" fill="black" style="font-family:Helvetica;font-size:12pt">1</text>
<text x="36.000000pt" y="90.000000pt" fill="black" style="font-family:Helvetica;font-size:12pt">9</text>
<text x="43.000000pt" y="90.000000pt" fill="black" style="font-family:Helvetica;font-size:12pt">3</text>
<text x="50.000000pt" y="90.000000pt" fill="black" style="font-family:Helvetica;font-size:12pt">3</text>
<text x="57.000000pt" y="90.000000pt" fill="black" style="font-family:Helvetica;font-size:12pt">9</text>
<text x="69.000000pt" y="90.000000pt" fill="black" style="font-family:Helvetica;font-size:12pt">5</text>
<text x="76.000000pt" y="90.000000pt" fill="black" style="font-family:Helvetica;font-size:12pt">0</text>
<text x="83.000000pt" y="90.000000pt" fill="black" style="font-family:Helvetica;font-size:12pt">6</text>
<text x="90.000000pt" y="90.000000pt" fill="black" style="font-family:Helvetica;font-size:12pt">0</text>
<text x="97.000000pt" y="90.000000pt" fill="black" style="font-family:Helvetica;font-size:12pt">3</text>
<text x="104.000000pt" y="90.000000pt" fill="black" style="font-family:Helvetica;font-size:12pt">5</text>
<!-- End barcode for "4019339506035" -->

</svg>
